<?xml version="1.0" encoding="utf-8"?>
<svg version="1.1" xmlns:xlink="http://www.w3.org/1999/xlink" width="38px" height="33px" xmlns="http://www.w3.org/2000/svg">
  <g transform="matrix(1 0 0 1 -439 -252 )">
    <path d="M 21.507238307349667 27.73467548076923  C 21.641239792130662 27.60907451923077  21.708240534521156 27.45372596153846  21.708240534521156 27.26862980769231  L 21.708240534521156 23.500600961538463  C 21.708240534521156 23.315504807692307  21.641239792130662 23.16015625  21.507238307349667 23.034555288461537  C 21.373236822568675 22.90895432692308  21.214550853749074 22.846153846153847  21.03118040089087 22.846153846153847  L 16.968819599109132 22.846153846153847  C 16.78544914625093 22.846153846153847  16.62676317743133 22.90895432692308  16.492761692650333 23.034555288461537  C 16.358760207869338 23.16015625  16.29175946547884 23.315504807692307  16.29175946547884 23.500600961538463  L 16.29175946547884 27.26862980769231  C 16.29175946547884 27.45372596153846  16.358760207869338 27.60907451923077  16.492761692650333 27.73467548076923  C 16.62676317743133 27.86027644230769  16.78544914625093 27.923076923076923  16.968819599109132 27.923076923076923  L 21.03118040089087 27.923076923076923  C 21.214550853749074 27.923076923076923  21.373236822568675 27.86027644230769  21.507238307349667 27.73467548076923  Z M 21.443763919821826 20.17878605769231  C 21.57776540460282 20.092848557692307  21.651818856718634 19.983774038461537  21.665924276169264 19.8515625  L 22.046770601336302 10.748798076923077  C 22.046770601336302 10.590144230769232  21.976243504083147 10.464543269230766  21.835189309576837 10.371995192307692  C 21.651818856718638 10.226562499999998  21.482553823311065 10.153846153846155  21.32739420935412 10.153846153846155  L 16.67260579064588 10.153846153846155  C 16.517446176688942 10.153846153846155  16.348181143281366 10.226562499999998  16.164810690423163 10.371995192307692  C 16.023756495916853 10.464543269230766  15.953229398663696 10.60336538461538  15.953229398663696 10.788461538461537  L 16.312917594654788 19.8515625  C 16.312917594654788 19.983774038461537  16.383444691907947 20.092848557692307  16.524498886414253 20.17878605769231  C 16.665553080920567 20.264723557692303  16.834818114328137 20.30769230769231  17.03229398663697 20.30769230769231  L 20.946547884187083 20.30769230769231  C 21.14402375649592 20.30769230769231  21.30976243504083 20.264723557692303  21.443763919821826 20.17878605769231  Z M 20.375278396436528 0.3569711538461544  C 20.79844097995546 0.5949519230769228  21.12991833704529 0.91887019230769  21.369710467706014 1.3287259615384632  L 37.61915367483296 29.251802884615387  C 38.11284335560505 30.084735576923077  38.09873793615442 30.91766826923077  37.57683741648107 31.750600961538463  C 37.337045285820345 32.13401442307692  37.00909428359317 32.43810096153847  36.592984409799556 32.66286057692308  C 36.17687453600594 32.88762019230769  35.72902746844841 33  35.249443207126944 33  L 2.750556792873051 33  C 2.270972531551596 33  1.823125463994061 32.88762019230769  1.4070155902004455 32.66286057692308  C 0.99090571640683 32.43810096153847  0.6629547141796586 32.13401442307692  0.42316258351893093 31.750600961538463  C -0.09873793615441724 30.91766826923077  -0.11284335560504828 30.084735576923077  0.38084632516703787 29.251802884615387  L 16.630289532293986 1.3287259615384632  C 16.870081662954718 0.91887019230769  17.201559020044545 0.5949519230769228  17.624721603563472 0.3569711538461544  C 18.047884187082406 0.11899038461538602  18.506310319227914 0  19 0  C 19.493689680772086 0  19.952115812917594 0.11899038461538602  20.375278396436528 0.3569711538461544  Z " fill-rule="nonzero" fill="#ffff00" stroke="none" transform="matrix(1 0 0 1 439 252 )" />
  </g>
</svg>