<?xml version="1.0" encoding="utf-8"?>
<svg version="1.1" xmlns:xlink="http://www.w3.org/1999/xlink" width="20px" height="20px" xmlns="http://www.w3.org/2000/svg">
  <g transform="matrix(1 0 0 1 -1276 -674 )">
    <path d="M 3.3795379537953796 18.31023102310231  L 4.792079207920792 18.31023102310231  L 5.993399339933994 17.10891089108911  L 2.891089108910891 14.006600660066006  L 1.6897689768976898 15.207920792079207  L 1.6897689768976898 16.620462046204622  L 3.3795379537953796 16.620462046204622  L 3.3795379537953796 18.31023102310231  Z M 11.603960396039604 6.2838283828382835  C 11.665566556655666 6.222222222222222  11.696369636963697 6.1474147414741465  11.696369636963697 6.05940594059406  C 11.696369636963697 5.865786578657866  11.5995599559956 5.768976897689768  11.405940594059405 5.768976897689768  C 11.31793179317932 5.768976897689768  11.243124312431245 5.799779977997799  11.181518151815181 5.861386138613862  L 4.026402640264026 13.016501650165019  C 3.964796479647965 13.078107810781077  3.933993399339934 13.152915291529151  3.933993399339934 13.24092409240924  C 3.933993399339934 13.43454345434543  4.030803080308031 13.531353135313534  4.224422442244224 13.531353135313534  C 4.312431243124313 13.531353135313534  4.387238723872388 13.500550055005501  4.448844884488449 13.438943894389439  L 11.603960396039604 6.2838283828382835  Z M 0 14.50825082508251  L 10.983498349834983 3.5247524752475257  L 16.475247524752476 9.016501650165017  L 5.491749174917492 20  L 0 20  L 0 14.50825082508251  Z M 19.511551155115512 3.5907590759075902  C 19.83718371837184 3.9339933993399345  20 4.334433443344334  20 4.792079207920792  C 20 5.258525852585258  19.83718371837184 5.654565456545653  19.511551155115512 5.980198019801981  L 17.32013201320132 8.17161716171617  L 11.82838283828383 2.6798679867986808  L 14.019801980198018 0.5016501650165006  C 14.336633663366335 0.1672167216721654  14.732673267326732 0  15.207920792079207 0  C 15.674367436743676 0  16.074807480748078 0.1672167216721654  16.40924092409241 0.5016501650165006  L 19.511551155115512 3.5907590759075902  Z " fill-rule="nonzero" fill=" #663398" stroke="none" transform="matrix(1 0 0 1 1276 674 )" />
  </g>
</svg>