<?xml version="1.0" encoding="utf-8"?>
<svg version="1.1" xmlns:xlink="http://www.w3.org/1999/xlink" width="25px" height="23px" xmlns="http://www.w3.org/2000/svg">
  <g transform="matrix(1 0 0 1 -331 -138 )">
    <path d="M 21.40644361833953 13.140296180826187  C 21.416769929781083 13.164198493115094  21.42193308550186 13.200051961548454  21.42193308550186 13.247856586126266  L 21.42193308550186 21.8526890101325  C 21.42193308550186 22.16341906988828  21.323833126807106 22.432320083138478  21.127633209417596 22.659392049883085  C 20.93143329202809 22.8864640166277  20.699091284593145 23  20.430607187112763 23  L 14.482651796778189 23  L 14.482651796778189 16.116134060795012  L 10.51734820322181 16.116134060795012  L 10.51734820322181 23  L 4.569392812887236 23  C 4.300908715406857 23  4.068566707971913 22.8864640166277  3.8723667905824035 22.659392049883085  C 3.676166873192896 22.432320083138478  3.578066914498141 22.16341906988828  3.578066914498141 21.8526890101325  L 3.578066914498141 13.247856586126266  C 3.578066914498141 13.235905429981813  3.58064849235853 13.217978695765133  3.585811648079306 13.194076383476228  C 3.590974803800083 13.170174071187322  3.593556381660471 13.152247336970643  3.593556381660471 13.140296180826187  L 12.5 4.643024162120031  L 21.40644361833953 13.140296180826187  Z M 24.98451053283767 11.5896336710834  C 24.994836844279224 11.750974279033514  24.95869475423379 11.891400363730838  24.87608426270136 12.010911925175371  L 23.915737298636927 13.337490257209666  C 23.833126807104506 13.445050662509745  23.724700536968196 13.510782021304236  23.590458488228006 13.534684333593141  L 23.543990086741015 13.534684333593141  C 23.409748038000828 13.534684333593141  23.301321767864522 13.492855287087554  23.218711276332094 13.409197194076382  L 12.5 3.0654715510522217  L 1.7812887236679058 13.409197194076382  C 1.657372986369269 13.504806443232006  1.533457249070632 13.546635489737593  1.409541511771995 13.534684333593141  C 1.275299463031805 13.510782021304236  1.1668731928954978 13.445050662509745  1.084262701363073 13.337490257209666  L 0.12391573729863693 12.010911925175371  C 0.04130524576621233 11.891400363730838  0.005163155720776576 11.750974279033514  0.015489467162329617 11.5896336710834  C 0.025815778603882768 11.428293063133282  0.08261049153242465 11.29981813458041  0.18587360594795538 11.204208885424785  L 11.32280049566295 0.46609508963367174  C 11.653242461792649 0.15536502987788803  12.045642296571666 0  12.5 0  C 12.954357703428338 0  13.346757538207354 0.15536502987788803  13.67719950433705 0.46609508963367174  L 17.456629491945478 4.12314886983632  L 17.456629491945478 0.6274356975837869  C 17.456629491945478 0.46011951156144204  17.503097893432464 0.3226812159002329  17.59603469640644 0.21512081060015698  C 17.688971499380422 0.10756040530007849  17.80772408095828 0.053780202650039244  17.952292441140024 0.053780202650039244  L 20.926270136307313 0.053780202650039244  C 21.070838496489056 0.053780202650039244  21.189591078066915 0.10756040530007849  21.28252788104089 0.21512081060015698  C 21.37546468401487 0.3226812159002329  21.42193308550186 0.46011951156144204  21.42193308550186 0.6274356975837869  L 21.42193308550186 7.941543257989088  L 24.814126394052042 11.204208885424785  C 24.917389508467576 11.29981813458041  24.97418422139612 11.428293063133282  24.98451053283767 11.5896336710834  Z " fill-rule="nonzero" fill=" #663398" stroke="none" transform="matrix(1 0 0 1 331 138 )" />
  </g>
</svg>