<?xml version="1.0" encoding="utf-8"?>
<svg version="1.1" xmlns:xlink="http://www.w3.org/1999/xlink" width="30px" height="31px" xmlns="http://www.w3.org/2000/svg">
  <g transform="matrix(1 0 0 1 -622 -257 )">
    <path d="M 19.82421875 25.651692708333336  C 19.94140625 25.530598958333336  20 25.375868055555554  20 25.1875  L 20 21.958333333333332  C 20 21.76996527777778  19.94140625 21.615234375  19.82421875 21.494140625  C 19.70703125 21.373046875  19.557291666666668 21.3125  19.375 21.3125  L 17 21.3125  L 17 10.979166666666666  C 17.5 10.79079861111111  17.44140625 10.636067708333334  17.32421875 10.514973958333334  C 17.20703125 10.393880208333334  17.057291666666668 10.333333333333334  16.875 10.333333333333334  L 10.625 10.333333333333334  C 10.442708333333336 10.333333333333334  10.29296875 10.393880208333334  10.17578125 10.514973958333334  C 10.05859375 10.636067708333334  10 10.79079861111111  10 10.979166666666666  L 10 14.208333333333334  C 10 14.39670138888889  10.05859375 14.551432291666666  10.17578125 14.672526041666666  C 10.29296875 14.793619791666666  10.442708333333336 14.854166666666666  10.625 14.854166666666666  L 12.5 14.854166666666666  L 12.5 21.3125  L 10.625 21.3125  C 10.442708333333336 21.3125  10.29296875 21.373046875  10.17578125 21.494140625  C 10.05859375 21.615234375  10 21.76996527777778  10 21.958333333333332  L 10 25.1875  C 10 25.375868055555554  10.05859375 25.530598958333336  10.17578125 25.651692708333336  C 10.29296875 25.772786458333336  10.442708333333336 25.833333333333336  10.625 25.833333333333336  L 19.375 25.833333333333336  C 19.557291666666668 25.833333333333336  19.70703125 25.772786458333336  19.82421875 25.651692708333336  Z M 17.32421875 7.568359375  C 17.44140625 7.447265625  17.5 7.29253472222222  17.5 7.104166666666665  L 17.5 3.875  C 17.5 3.6866319444444424  17.44140625 3.5319010416666656  17.32421875 3.4108072916666656  C 17.20703125 3.2897135416666656  17.057291666666668 3.2291666666666656  16.875 3.2291666666666656  L 13.125 3.2291666666666656  C 12.942708333333336 3.2291666666666656  12.79296875 3.2897135416666656  12.67578125 3.4108072916666656  C 12.55859375 3.5319010416666656  12.5 3.6866319444444424  12.5 3.875  L 12.5 7.104166666666665  C 12.5 7.29253472222222  12.55859375 7.447265625  12.67578125 7.568359375  C 12.79296875 7.689453125  12.942708333333336 7.75  13.125 7.75  L 16.875 7.75  C 17.057291666666668 7.75  17.20703125 7.689453125  17.32421875 7.568359375  Z M 27.98828125 7.7197265625  C 29.32942708333333 10.094509548611107  30 12.687934027777773  30 15.5  C 30 18.31206597222222  29.32942708333333 20.905490451388886  27.98828125 23.2802734375  C 26.64713541666667 25.65505642361111  24.827473958333332 27.53537326388889  22.529296875 28.921223958333336  C 20.23111979166667 30.307074652777782  17.721354166666668 31  15 31  C 12.278645833333334 31  9.768880208333334 30.307074652777782  7.470703125 28.921223958333336  C 5.172526041666667 27.53537326388889  3.352864583333334 25.65505642361111  2.01171875 23.2802734375  C 0.6705729166666665 20.905490451388886  0 18.31206597222222  0 15.5  C 0 12.687934027777773  0.6705729166666665 10.094509548611107  2.01171875 7.7197265625  C 3.352864583333334 5.344943576388888  5.172526041666667 3.464626736111108  7.470703125 2.0787760416666656  C 9.768880208333334 0.6929253472222195  12.278645833333334 0  15 0  C 17.721354166666668 0  20.23111979166667 0.6929253472222195  22.529296875 2.0787760416666656  C 24.827473958333332 3.464626736111108  26.64713541666667 5.344943576388888  27.98828125 7.7197265625  Z " fill-rule="nonzero" fill="#663398" stroke="none" transform="matrix(1 0 0 1 622 257 )" />
  </g>
</svg>