<?xml version="1.0" encoding="utf-8"?>
<svg version="1.1" xmlns:xlink="http://www.w3.org/1999/xlink" width="18px" height="21px" xmlns="http://www.w3.org/2000/svg">
  <g transform="matrix(1 0 0 1 -1331 -669 )">
    <path d="M 6.4303977272727275 17.376953125  C 6.5071022727272725 17.294921875  6.545454545454546 17.190104166666664  6.545454545454546 17.0625  L 6.545454545454546 7.437499999999999  C 6.545454545454546 7.309895833333334  6.5071022727272725 7.205078125000001  6.4303977272727275 7.123046875000001  C 6.353693181818182 7.041015625000001  6.255681818181819 7.000000000000001  6.136363636363636 7.000000000000001  L 5.318181818181818 7.000000000000001  C 5.198863636363638 7.000000000000001  5.100852272727273 7.041015625000001  5.0241477272727275 7.123046875000001  C 4.947443181818182 7.205078125000001  4.909090909090908 7.309895833333334  4.909090909090908 7.437499999999999  L 4.909090909090908 17.0625  C 4.909090909090908 17.190104166666664  4.947443181818182 17.294921875  5.0241477272727275 17.376953125  C 5.100852272727273 17.458984375  5.198863636363638 17.5  5.318181818181818 17.5  L 6.136363636363636 17.5  C 6.255681818181819 17.5  6.353693181818182 17.458984375  6.4303977272727275 17.376953125  Z M 9.703125 17.376953125  C 9.779829545454545 17.294921875  9.818181818181817 17.190104166666664  9.818181818181817 17.0625  L 9.818181818181817 7.437499999999999  C 9.818181818181817 7.309895833333334  9.779829545454545 7.205078125000001  9.703125 7.123046875000001  C 9.626420454545455 7.041015625000001  9.528409090909092 7.000000000000001  9.409090909090908 7.000000000000001  L 8.590909090909092 7.000000000000001  C 8.47159090909091 7.000000000000001  8.373579545454545 7.041015625000001  8.296875 7.123046875000001  C 8.220170454545455 7.205078125000001  8.181818181818182 7.309895833333334  8.181818181818182 7.437499999999999  L 8.181818181818182 17.0625  C 8.181818181818182 17.190104166666664  8.220170454545455 17.294921875  8.296875 17.376953125  C 8.373579545454545 17.458984375  8.47159090909091 17.5  8.590909090909092 17.5  L 9.409090909090908 17.5  C 9.528409090909092 17.5  9.626420454545455 17.458984375  9.703125 17.376953125  Z M 12.975852272727272 17.376953125  C 13.052556818181817 17.294921875  13.090909090909092 17.190104166666664  13.090909090909092 17.0625  L 13.090909090909092 7.437499999999999  C 13.090909090909092 7.309895833333334  13.052556818181817 7.205078125000001  12.975852272727272 7.123046875000001  C 12.899147727272728 7.041015625000001  12.801136363636363 7.000000000000001  12.681818181818183 7.000000000000001  L 11.863636363636363 7.000000000000001  C 11.744318181818182 7.000000000000001  11.646306818181817 7.041015625000001  11.569602272727272 7.123046875000001  C 11.492897727272728 7.205078125000001  11.454545454545455 7.309895833333334  11.454545454545455 7.437499999999999  L 11.454545454545455 17.0625  C 11.454545454545455 17.190104166666664  11.492897727272728 17.294921875  11.569602272727272 17.376953125  C 11.646306818181817 17.458984375  11.744318181818182 17.5  11.863636363636363 17.5  L 12.681818181818183 17.5  C 12.801136363636363 17.5  12.899147727272728 17.458984375  12.975852272727272 17.376953125  Z M 6.762784090909092 1.9003906249999991  L 6.136363636363636 3.499999999999999  L 11.863636363636363 3.499999999999999  L 11.25 1.9003906249999991  C 11.190340909090912 1.8183593749999991  11.117897727272727 1.7682291666666656  11.032670454545455 1.7500000000000009  L 6.980113636363636 1.7500000000000009  C 6.894886363636363 1.7682291666666656  6.8224431818181825 1.8183593749999991  6.762784090909092 1.9003906249999991  Z M 17.884943181818183 3.623046874999999  C 17.961647727272727 3.705078124999999  18 3.809895833333332  18 3.9375  L 18 4.812499999999999  C 18 4.940104166666665  17.961647727272727 5.044921875  17.884943181818183 5.126953125  C 17.808238636363637 5.208984375  17.710227272727273 5.25  17.59090909090909 5.25  L 16.363636363636363 5.25  L 16.363636363636363 18.2109375  C 16.363636363636363 18.967447916666664  16.163352272727273 19.621419270833336  15.762784090909092 20.1728515625  C 15.36221590909091 20.724283854166668  14.880681818181817 21  14.318181818181817 21  L 3.681818181818182 21  C 3.119318181818182 21  2.6377840909090913 20.7333984375  2.237215909090909 20.2001953125  C 1.8366477272727275 19.6669921875  1.6363636363636365 19.022135416666668  1.6363636363636365 18.265625  L 1.6363636363636365 5.25  L 0.4090909090909091 5.25  C 0.2897727272727273 5.25  0.19176136363636365 5.208984375  0.11505681818181819 5.126953125  C 0.03835227272727272 5.044921875  0 4.940104166666665  0 4.812499999999999  L 0 3.9375  C 0 3.809895833333332  0.03835227272727272 3.705078124999999  0.11505681818181819 3.623046874999999  C 0.19176136363636365 3.541015624999999  0.2897727272727273 3.499999999999999  0.4090909090909091 3.499999999999999  L 4.359375 3.499999999999999  L 5.254261363636364 1.2167968750000009  C 5.382102272727273 0.8795572916666649  5.61221590909091 0.5924479166666649  5.9446022727272725 0.3554687500000008  C 6.276988636363637 0.11848958333333204  6.613636363636363 0  6.954545454545454 0  L 11.045454545454545 0  C 11.386363636363638 0  11.723011363636363 0.11848958333333204  12.055397727272728 0.3554687500000008  C 12.387784090909092 0.5924479166666649  12.617897727272728 0.8795572916666649  12.745738636363637 1.2167968750000009  L 13.640625 3.499999999999999  L 17.59090909090909 3.499999999999999  C 17.710227272727273 3.499999999999999  17.808238636363637 3.541015624999999  17.884943181818183 3.623046874999999  Z " fill-rule="nonzero" fill=" #663398" stroke="none" transform="matrix(1 0 0 1 1331 669 )" />
  </g>
</svg>