<?xml version="1.0" encoding="utf-8"?>
<svg version="1.1" xmlns:xlink="http://www.w3.org/1999/xlink" width="26px" height="25px" xmlns="http://www.w3.org/2000/svg">
  <g transform="matrix(1 0 0 1 -1211 -141 )">
    <path d="M 8.37890625 20.166015625  C 9.789496527777779 20.958116319444446  11.32986111111111 21.354166666666664  13 21.354166666666664  L 13 3.6458333333333344  C 11.32986111111111 3.6458333333333344  9.789496527777779 4.041883680555555  8.37890625 4.833984375  C 6.968315972222222 5.626085069444442  5.851128472222222 6.700303819444442  5.02734375 8.056640625  C 4.203559027777779 9.412977430555555  3.791666666666667 10.894097222222221  3.791666666666667 12.5  C 3.791666666666667 14.105902777777779  4.203559027777779 15.587022569444443  5.02734375 16.943359375  C 5.851128472222222 18.299696180555554  6.968315972222222 19.373914930555554  8.37890625 20.166015625  Z M 24.256510416666668 6.2255859375  C 25.418836805555554 8.140733506944443  26 10.232204861111107  26 12.5  C 26 14.76779513888889  25.418836805555554 16.859266493055554  24.256510416666668 18.7744140625  C 23.09418402777778 20.689561631944446  21.51714409722222 22.205946180555554  19.525390625 23.323567708333336  C 17.53363715277778 24.441189236111114  15.358506944444445 25  13 25  C 10.641493055555557 25  8.466362847222223 24.441189236111114  6.474609375 23.323567708333336  C 4.482855902777779 22.205946180555554  2.9058159722222223 20.689561631944446  1.7434895833333335 18.7744140625  C 0.5811631944444444 16.859266493055554  0 14.76779513888889  0 12.5  C 0 10.232204861111107  0.5811631944444444 8.140733506944443  1.7434895833333335 6.2255859375  C 2.9058159722222223 4.310438368055555  4.482855902777779 2.794053819444442  6.474609375 1.6764322916666656  C 8.466362847222223 0.5588107638888867  10.641493055555557 0  13 0  C 15.358506944444445 0  17.53363715277778 0.5588107638888867  19.525390625 1.6764322916666656  C 21.51714409722222 2.794053819444442  23.09418402777778 4.310438368055555  24.256510416666668 6.2255859375  Z " fill-rule="nonzero" fill=" #663398" stroke="none" transform="matrix(1 0 0 1 1211 141 )" />
  </g>
</svg>