<?xml version="1.0" encoding="utf-8"?>
<svg version="1.1" xmlns:xlink="http://www.w3.org/1999/xlink" width="35px" height="27px" xmlns="http://www.w3.org/2000/svg">
  <g transform="matrix(1 0 0 1 -36 -139 )">
    <path d="M 34.56705729166667 22.00078125  C 34.855685763888886 22.26796875  35 22.584375  35 22.95  L 35 25.65  C 35 26.015625  34.855685763888886 26.33203125  34.56705729166667 26.59921875  C 34.27842881944445 26.86640625  33.93663194444445 27  33.54166666666667 27  L 1.4583333333333333 27  C 1.0633680555555556 27  0.7215711805555556 26.86640625  0.4329427083333333 26.59921875  C 0.1443142361111111 26.33203125  0 26.015625  0 25.65  L 0 22.95  C 0 22.584375  0.1443142361111111 22.26796875  0.4329427083333333 22.00078125  C 0.7215711805555556 21.73359375  1.0633680555555556 21.6  1.4583333333333333 21.6  L 33.54166666666667 21.6  C 33.93663194444445 21.6  34.27842881944445 21.73359375  34.56705729166667 22.00078125  Z M 34.56705729166667 11.200781249999999  C 34.855685763888886 11.467968749999999  35 11.784374999999999  35 12.149999999999999  L 35 14.850000000000001  C 35 15.215625  34.855685763888886 15.53203125  34.56705729166667 15.799218750000001  C 34.27842881944445 16.066406249999996  33.93663194444445 16.2  33.54166666666667 16  L 1.4583333333333333 16  C 1.0633680555555556 16.2  0.7215711805555556 16.066406249999996  0.4329427083333333 15.799218750000001  C 0.1443142361111111 15.53203125  0 15.215625  0 14.850000000000001  L 0 12.149999999999999  C 0 11.784374999999999  0.1443142361111111 11.467968749999999  0.4329427083333333 11.200781249999999  C 0.7215711805555556 10.933593750000002  1.0633680555555556 10.8  1.4583333333333333 11  L 33.54166666666667 11  C 33.93663194444445 10.8  34.27842881944445 10.933593750000002  34.56705729166667 11.200781249999999  Z M 34.56705729166667 0.4007812500000012  C 34.855685763888886 0.667968749999998  35 0.984374999999998  35 1.3500000000000012  L 35 4.050000000000001  C 35 4.415624999999998  34.855685763888886 4.732031249999998  34.56705729166667 4.999218750000001  C 34.27842881944445 5.2664062499999975  33.93663194444445 5.399999999999999  33.54166666666667 5.399999999999999  L 1.4583333333333333 5.399999999999999  C 1.0633680555555556 5.399999999999999  0.7215711805555556 5.2664062499999975  0.4329427083333333 4.999218750000001  C 0.1443142361111111 4.732031249999998  0 4.415624999999998  0 4.050000000000001  L 0 1.3500000000000012  C 0 0.984374999999998  0.1443142361111111 0.667968749999998  0.4329427083333333 0.4007812500000012  C 0.7215711805555556 0.1335937499999984  1.0633680555555556 0  1.4583333333333333 0  L 33.54166666666667 0  C 33.93663194444445 0  34.27842881944445 0.1335937499999984  34.56705729166667 0.4007812500000012  Z " fill-rule="nonzero" fill=" #663398" stroke="none" transform="matrix(1 0 0 1 36 139 )" />
  </g>
</svg>