<?xml version="1.0" encoding="utf-8"?>
<svg version="1.1" xmlns:xlink="http://www.w3.org/1999/xlink" width="30px" height="33px" xmlns="http://www.w3.org/2000/svg">
  <g transform="matrix(1 0 0 1 -1271 -138 )">
    <path d="M 20.95982142857143 29.031529017857142  C 22.80133928571429 27.957310267857146  24.313616071428577 26.49944196428571  25.49665178571429 24.657924107142858  C 25.251116071428577 22.75502232142857  24.762834821428573 21.174386160714285  24.03180803571429 19.916015625  C 23.30078125 18.657645089285715  22.271205357142858 17.930245535714285  20.943080357142858 17.73381696428571  C 20.1953125 18.642299107142854  19.305245535714285 19.351283482142854  18.27287946428571 19.86077008928571  C 17.240513392857146 20.37025669642857  16.149553571428573 20.625  15 20.625  C 13.850446428571429 20.625  12.75948660714286 20.37025669642857  11.727120535714285 19.86077008928571  C 10.694754464285715 19.351283482142854  9.8046875 18.642299107142854  9.056919642857144 17.73381696428571  C 7.728794642857142 17.930245535714285  6.699218750000001 18.657645089285715  5.968191964285714 19.916015625  C 5.23716517857143 21.174386160714285  4.748883928571429 22.75502232142857  4.503348214285714 24.657924107142858  C 5.686383928571429 26.49944196428571  7.198660714285714 27.957310267857146  9.040178571428571 29.031529017857142  C 10.881696428571429 30.105747767857142  12.868303571428573 30.642857142857142  15 30.642857142857142  C 17.13169642857143 30.642857142857142  19.11830357142857 30.105747767857142  20.95982142857143 29.031529017857142  Z M 19.545200892857142 16.785435267857142  C 20.80078125 15.404296875  21.42857142857143 13.737723214285715  21.42857142857143 11.785714285714285  C 21.42857142857143 9.833705357142856  20.80078125 8.167131696428571  19.545200892857142 6.785993303571428  C 18.28962053571429 5.404854910714284  16.77455357142857 4.714285714285716  15 4.714285714285716  C 13.225446428571429 4.714285714285716  11.710379464285715 5.404854910714284  10.454799107142856 6.785993303571428  C 9.19921875 8.167131696428571  8.571428571428571 9.833705357142856  8.571428571428571 11.785714285714285  C 8.571428571428571 13.737723214285715  9.19921875 15.404296875  10.454799107142856 16.785435267857142  C 11.710379464285715 18.16657366071429  13.225446428571429 18.857142857142858  15 18.857142857142858  C 16.77455357142857 18.857142857142858  18.28962053571429 18.16657366071429  19.545200892857142 16.785435267857142  Z M 28.81138392857143 10.091517857142856  C 29.603794642857146 12.129464285714283  30 14.265624999999998  30 16.5  C 30 18.734374999999996  29.603794642857146 20.86746651785714  28.81138392857143 22.899274553571427  C 28.01897321428572 24.93108258928571  26.955915178571434 26.68666294642857  25.62220982142857 28.166015625  C 24.28850446428572 29.645368303571427  22.695312500000004 30.82087053571429  20.84263392857143 31.692522321428573  C 18.989955357142858 32.564174107142854  17.04241071428571 33  15 33  C 12.96875 33  11.026785714285715 32.564174107142854  9.174107142857144 31.692522321428573  C 7.321428571428572 30.82087053571429  5.725446428571428 29.6484375  4.386160714285714 28.17522321428571  C 3.046875 26.702008928571427  1.9810267857142858 24.94642857142857  1.1886160714285714 22.908482142857142  C 0.3962053571428571 20.87053571428571  0 18.734374999999996  0 16.5  C 0 14.265624999999998  0.3962053571428571 12.129464285714283  1.1886160714285714 10.091517857142856  C 1.9810267857142858 8.053571428571425  3.046875 6.297991071428572  4.386160714285714 4.824776785714284  C 5.725446428571428 3.3515625  7.321428571428572 2.1791294642857135  9.174107142857144 1.307477678571428  C 11.026785714285715 0.4358258928571427  12.96875 0  15 0  C 17.03125 0  18.97321428571429 0.4358258928571427  20.825892857142858 1.307477678571428  C 22.67857142857143 2.1791294642857135  24.27455357142857 3.3515625  25.61383928571429 4.824776785714284  C 26.953125000000004 6.297991071428572  28.01897321428572 8.053571428571425  28.81138392857143 10.091517857142856  Z " fill-rule="nonzero" fill=" #663398" stroke="none" transform="matrix(1 0 0 1 1271 138 )" />
  </g>
</svg>